<svg xmlns="http://www.w3.org/2000/svg" width="950" height="950"><path d="M901.261 449.657c-16.71-43.479-35.013-91.496-64.4-128.276-22.216-27.803-63.87-51.881-100.746-46.25-.479.073-3.56.746-8.913 1.943a196.243 196.243 0 0 1 2.011 28.039c0 26.248-5.153 51.743-15.318 75.776-9.807 23.184-23.831 43.991-41.686 61.847-17.854 17.854-38.663 31.88-61.846 41.685-24.033 10.165-49.528 15.319-75.776 15.319s-51.742-5.154-75.775-15.319c-23.184-9.806-43.991-23.831-61.847-41.685-17.854-17.855-31.88-38.663-41.685-61.847a194.684 194.684 0 0 1-6.375-17.34c-152.941 35.083-294.746 67.669-303.027 69.597-7.299 1.699-16.184 2.713-22.735 6.199-5.526 2.94-9.487 7.641-9.487 15.993v381.766c0 15.044 15.905 28.903 35.503 30.944l141.915 14.758 638.322 66.438c58.699 6.117 106.354-25.531 106.354-70.708 0-28.52-18.981-55.522-47.74-73.177 28.759-11.623 47.745-34.733 47.745-63.21 0-28.471-18.984-55.474-47.693-73.079 84.847-34.563 36.914-157.705 13.199-219.413zM714.38 875.212L88.654 810.058v-62.544l625.726 65.105c58.701 6.123 106.347 25.059 106.347 42.329 0 17.275-47.646 26.386-106.347 20.264zm0-124.661L88.654 685.396v-62.593l625.726 65.202c58.701 6.123 106.347 25.054 106.347 42.329 0 17.272-47.646 26.34-106.347 20.217zm0-124.661L88.654 560.78v-62.593l625.726 65.11c58.701 6.118 106.347 25.104 106.347 42.373 0 17.324-47.646 26.338-106.347 20.22z"/><path d="M399.96 305.114c0 15.768 2.721 30.899 7.701 44.961 18.506 52.241 68.341 89.666 126.924 89.666 74.353 0 134.626-60.274 134.626-134.626 0-4.971-.277-9.876-.803-14.708-7.328-67.432-64.441-119.918-133.823-119.918-7.086 0-14.042.551-20.832 1.606-4.607-9.426-9.713-18.638-15.216-27.62-5.547-9.054-11.493-17.874-17.715-26.451-7.626-10.512-15.666-20.659-23.911-30.412-15.331-18.135-31.972-35.302-50.263-50.478C390.631 23.843 373.6 11.04 354.462 2.571c-10.823-4.79-23.232-3.264-29.708 7.79-5.471 9.34-3.039 24.917 7.79 29.709 8.982 3.975 17.517 8.928 25.643 14.435a243.602 243.602 0 0 1 6.968 4.881c.835.61 3.828 2.892 4.616 3.473 3.471 2.748 6.902 5.545 10.253 8.44a388.94 388.94 0 0 1 25.455 24.075c8.545 8.847 16.76 18.018 24.546 27.541a456.668 456.668 0 0 1 6.557 8.184l.015.017.257.339c.905 1.196 1.812 2.391 2.707 3.595.032.045.064.09.098.134 3.533 4.762 6.996 9.577 10.328 14.483a444.317 444.317 0 0 1 6.839 10.38c4.352 6.812 8.504 13.752 12.369 20.852a388.97 388.97 0 0 1 2.701 5.058c-42.774 22.55-71.936 67.444-71.936 119.157z"/></svg>